
        <svg xmlns="http://www.w3.org/2000/svg" xmlns:xlink="http://www.w3.org/1999/xlink" version="1.1" width="3292.682926829268" 
        height="1404.878048780488" viewBox="0 0 3292.682926829268 1404.878048780488">
			<rect fill="#ffffff" width="3292.682926829268" height="1404.878048780488"/>
			<g transform="scale(14.634146341463415) translate(10, 10)">
				<defs id="SvgjsDefs16108"></defs><g id="SvgjsG16109" featureKey="nameGroupContainer" transform="matrix(1,0,0,1,0,0)" fill="#364f6b"><rect xmlns="http://www.w3.org/2000/svg" width="205" height="76" rx="10" ry="10"></rect></g><g id="SvgjsG16110" featureKey="nameLeftFeature-0" transform="matrix(2.363073076929337,0,0,2.363073076929337,17.636926359670138,8.183692609674988)" fill="#ffffff"><path d="M13.18 20.02 l0 -10.16 l-4.56 6.08 l-0.52 0 l-4.46 -6.1 l0 10.18 l-2.64 0 l0 -14 l3.04 0 l4.38 6.02 l4.38 -6.02 l3.02 0 l0 14 l-2.64 0 z M21.92 20 l0 -11.6 l-4.44 0 l0 -2.4 l11.52 0 l0 2.4 l-4.44 0 l0 11.6 l-2.64 0 z M30.6 6 l2.64 0 l0 11.56 l7.2 0 l0 2.44 l-9.84 0 l0 -14 z"></path></g><g id="SvgjsG16111" featureKey="inlineMonogramFeature-0" transform="matrix(2.249928490453978,0,0,2.249928490453978,117.4150180775142,10.726084300112866)" fill="#ebaa0e"><path d="M8.54 11.5 l0.08 -1.36 l2.34 0 l0 9.86 l-2.3 0 l-0.12 -1.44 c-0.56 1.16 -2.1 1.72 -3.2 1.74 c-2.92 0.02 -5.08 -1.78 -5.08 -5.24 c0 -3.4 2.26 -5.18 5.14 -5.16 c1.32 0 2.58 0.62 3.14 1.6 z M5.62 12.08 c-1.62 0 -2.92 1.1 -2.92 2.98 s1.3 3 2.92 3 c3.84 0 3.84 -5.98 0 -5.98 z"></path></g><g id="SvgjsG16112" featureKey="nameRightFeature-0" transform="matrix(2.363073076929337,0,0,2.363073076929337,143.56163194846562,8.183692609674988)" fill="#ffffff"><path d="M7.3535 9.766 c2.6367 0 4.8242 1.9531 4.8242 5.2344 s-2.1875 5.2344 -4.8242 5.2344 c-1.3867 0 -2.5977 -0.55664 -3.1641 -1.543 l-0.068359 1.3086 l-2.666 0 l0 -15 l2.8125 0 l0 6.1816 c0.58594 -0.9082 1.7578 -1.416 3.0859 -1.416 z M6.6992 17.9004 c1.4941 0 2.666 -1.1035 2.666 -2.9004 c0 -1.8066 -1.1719 -2.9102 -2.666 -2.9102 c-1.4844 0 -2.6563 1.1523 -2.6563 2.9102 s1.1621 2.9004 2.6563 2.9004 z M16.054696875 20.19531 c-0.86914 0 -1.6016 -0.72266 -1.6016 -1.6016 s0.73242 -1.6211 1.6016 -1.6211 c0.88867 0 1.6211 0.74219 1.6211 1.6211 s-0.73242 1.6016 -1.6211 1.6016 z"></path></g>
			</g>
		</svg>
	